<?xml version="1.0" encoding="iso-8859-1"?>
<!-- Uploaded to: SVG Repo, www.svgrepo.com, Generator: SVG Repo Mixer Tools -->
<svg fill="#000000" version="1.1" id="Layer_1" xmlns="http://www.w3.org/2000/svg" xmlns:xlink="http://www.w3.org/1999/xlink" 
	 viewBox="0 0 490 490" xml:space="preserve">
<g>
	<g>
		<g>
			<path d="M480,240h-65v-55c0-5.523-4.478-10-10-10H255v-65h85c5.522,0,10-4.477,10-10V10c0-5.523-4.478-10-10-10H150
				c-5.522,0-10,4.477-10,10v90c0,5.523,4.478,10,10,10h85v65H85c-5.522,0-10,4.477-10,10v55H10c-5.522,0-10,4.477-10,10v80
				c0,5.523,4.478,10,10,10h150c5.522,0,10-4.477,10-10v-80c0-5.523-4.478-10-10-10H95v-45h140v195h-65c-5.522,0-10,4.477-10,10v80
				c0,5.523,4.478,10,10,10h150c5.522,0,10-4.477,10-10v-80c0-5.523-4.478-10-10-10h-65V195h140v45h-65c-5.522,0-10,4.477-10,10v80
				c0,5.523,4.478,10,10,10h150c5.522,0,10-4.477,10-10v-80C490,244.477,485.522,240,480,240z M150,260v60H20v-60H150z M310,410v60
				H180v-60H310z M160,90V20h170v70H160z M470,320H340v-60h130V320z"/>
			<rect x="200" y="30" width="90" height="20"/>
			<rect x="225" y="60" width="40" height="20"/>
			<rect x="40" y="280" width="40" height="20"/>
			<rect x="90" y="280" width="40" height="20"/>
			<rect x="360" y="280" width="40" height="20"/>
			<rect x="410" y="280" width="40" height="20"/>
			<rect x="200" y="430" width="40" height="20"/>
			<rect x="250" y="430" width="40" height="20"/>
		</g>
	</g>
</g>
</svg>